<svg width="37" height="36" viewBox="0 0 37 36" fill="none" xmlns="http://www.w3.org/2000/svg">
<path d="M28.1083 34H9.82832C9.44352 33.9909 9.06427 33.9061 8.71226 33.7504C8.36024 33.5947 8.04235 33.3712 7.77675 33.0926C7.51116 32.814 7.30306 32.4858 7.16434 32.1267C7.02563 31.7677 6.95902 31.3848 6.96832 31V11.23H8.96832V31C8.95878 31.1222 8.97348 31.2451 9.01159 31.3616C9.0497 31.4781 9.11047 31.5859 9.19039 31.6788C9.27031 31.7718 9.36781 31.848 9.47729 31.9031C9.58677 31.9582 9.70607 31.9912 9.82832 32H28.1083C28.2306 31.9912 28.3499 31.9582 28.4594 31.9031C28.5688 31.848 28.6663 31.7718 28.7463 31.6788C28.8262 31.5859 28.8869 31.4781 28.9251 31.3616C28.9632 31.2451 28.9779 31.1222 28.9683 31V11.23H30.9683V31C30.9776 31.3848 30.911 31.7677 30.7723 32.1267C30.6336 32.4858 30.4255 32.814 30.1599 33.0926C29.8943 33.3712 29.5764 33.5947 29.2244 33.7504C28.8724 33.9061 28.4931 33.9909 28.1083 34V34Z" fill="#A8A8B3"/>
<path d="M31.7483 9H5.96832C5.70311 9 5.44875 8.89464 5.26122 8.70711C5.07368 8.51957 4.96832 8.26522 4.96832 8C4.96832 7.73478 5.07368 7.48043 5.26122 7.29289C5.44875 7.10536 5.70311 7 5.96832 7H31.7483C32.0135 7 32.2679 7.10536 32.4554 7.29289C32.643 7.48043 32.7483 7.73478 32.7483 8C32.7483 8.26522 32.643 8.51957 32.4554 8.70711C32.2679 8.89464 32.0135 9 31.7483 9Z" fill="#A8A8B3"/>
<path d="M21.9683 13H23.9683V28H21.9683V13Z" fill="#A8A8B3"/>
<path d="M13.9683 13H15.9683V28H13.9683V13Z" fill="#A8A8B3"/>
<path d="M23.9683 5.86H22.0683V4H15.8683V5.86H13.9683V4C13.9677 3.48645 14.1646 2.99233 14.5183 2.62C14.872 2.24767 15.3554 2.02568 15.8683 2H22.0683C22.5812 2.02568 23.0646 2.24767 23.4183 2.62C23.772 2.99233 23.969 3.48645 23.9683 4V5.86Z" fill="#A8A8B3"/>
</svg>
